<svg xmlns="http://www.w3.org/2000/svg" viewBox="0 0 1200 760" font-family="-apple-system, 'Segoe UI', Helvetica, Arial, sans-serif">
  <defs>
    <linearGradient id="lvl" x1="0" y1="0" x2="1" y2="0">
      <stop offset="0" stop-color="#6fe3b4"/><stop offset="1" stop-color="#7aa2ff"/>
    </linearGradient>
    <linearGradient id="startbtn" x1="0" y1="0" x2="1" y2="1">
      <stop offset="0" stop-color="#1d5b44"/><stop offset="1" stop-color="#17493d"/>
    </linearGradient>
  </defs>

  <!-- window -->
  <rect x="0" y="0" width="1200" height="700" rx="14" fill="#0b0e14"/>
  <rect x="0.5" y="0.5" width="1199" height="699" rx="14" fill="none" stroke="#232a3b"/>

  <!-- header -->
  <line x1="0" y1="64" x2="1200" y2="64" stroke="#232a3b"/>
  <text x="26" y="40" font-size="19" font-weight="700" fill="#e8ecf4">susu<tspan fill="#6fe3b4">rro</tspan></text>
  <rect x="122" y="22" width="150" height="26" rx="13" fill="#10201a" stroke="#1e3a30"/>
  <text x="197" y="39" font-size="11" fill="#6fe3b4" text-anchor="middle" font-family="Menlo, monospace" letter-spacing="0.5">100% LOCAL · NO CLOUD</text>
  <rect x="282" y="22" width="212" height="26" rx="13" fill="#131a2b" stroke="#22304f"/>
  <text x="388" y="39" font-size="11" fill="#7aa2ff" text-anchor="middle" font-family="Menlo, monospace">whisper:medium · llama3.2:3b</text>

  <rect x="806" y="18" width="128" height="34" rx="9" fill="#1b2742" stroke="#2f4377"/>
  <text x="870" y="40" font-size="13" fill="#e8ecf4" text-anchor="middle">👤 Names: on</text>
  <circle cx="960" cy="35" r="5" fill="#ff6b7a"/>
  <circle cx="960" cy="35" r="9" fill="none" stroke="#ff6b7a" stroke-opacity="0.35"/>
  <text x="1020" y="41" font-size="15" font-weight="600" fill="#8b94a7" font-family="Menlo, monospace" text-anchor="middle">27:14</text>
  <rect x="1052" y="18" width="60" height="34" rx="9" fill="url(#startbtn)" stroke="#2c7a5c" opacity="0.4"/>
  <text x="1082" y="40" font-size="13" font-weight="600" fill="#e8ecf4" text-anchor="middle" opacity="0.5">▶</text>
  <rect x="1120" y="18" width="60" height="34" rx="9" fill="#3a1b22" stroke="#6b2833"/>
  <text x="1150" y="40" font-size="13" font-weight="600" fill="#e8ecf4" text-anchor="middle">■</text>

  <!-- caption feed -->
  <!-- participant caption 1: Chinese → EN with speaker name -->
  <rect x="26" y="90" width="520" height="108" rx="14" fill="#11151f" stroke="#232a3b"/>
  <text x="44" y="115" font-size="11" font-family="Menlo, monospace">
    <tspan fill="#7aa2ff" font-weight="700">Alice Chen</tspan><tspan fill="#5a6275">  14:02:11  </tspan></text>
  <rect x="178" y="103" width="62" height="16" rx="4" fill="#2a2338"/>
  <text x="209" y="115" font-size="10" fill="#c9a6ff" font-weight="700" text-anchor="middle" font-family="Menlo, monospace">ZH → EN</text>
  <text x="44" y="142" font-size="14.5" fill="#e8ecf4">We can commit to starting the pilot rollout in August.</text>
  <line x1="44" y1="158" x2="528" y2="158" stroke="#232a3b" stroke-dasharray="4 3"/>
  <text x="44" y="182" font-size="13.5" fill="#8b94a7">我们可以承诺八月开始试点。</text>

  <!-- mic caption -->
  <rect x="250" y="214" width="470" height="76" rx="14" fill="#12202b" stroke="#1e3648"/>
  <text x="268" y="239" font-size="11" font-family="Menlo, monospace">
    <tspan fill="#6fe3b4" font-weight="700">You</tspan><tspan fill="#5a6275">  14:02:34</tspan></text>
  <text x="268" y="268" font-size="14.5" fill="#e8ecf4">Great — I will send the pricing summary by Friday.</text>

  <!-- participant caption 2: Japanese → EN -->
  <rect x="26" y="306" width="540" height="108" rx="14" fill="#11151f" stroke="#232a3b"/>
  <text x="44" y="331" font-size="11" font-family="Menlo, monospace">
    <tspan fill="#7aa2ff" font-weight="700">Kenji Watanabe</tspan><tspan fill="#5a6275">  14:03:02  </tspan></text>
  <rect x="212" y="319" width="62" height="16" rx="4" fill="#2a2338"/>
  <text x="243" y="331" font-size="10" fill="#c9a6ff" font-weight="700" text-anchor="middle" font-family="Menlo, monospace">JA → EN</text>
  <text x="44" y="358" font-size="14.5" fill="#e8ecf4">The security review is the only remaining blocker.</text>
  <line x1="44" y1="374" x2="548" y2="374" stroke="#232a3b" stroke-dasharray="4 3"/>
  <text x="44" y="398" font-size="13.5" fill="#8b94a7">セキュリティレビューが残る唯一の課題です。</text>

  <!-- participant caption 3: English passthrough -->
  <rect x="26" y="430" width="500" height="76" rx="14" fill="#11151f" stroke="#232a3b"/>
  <text x="44" y="455" font-size="11" font-family="Menlo, monospace">
    <tspan fill="#7aa2ff" font-weight="700">Alice Chen</tspan><tspan fill="#5a6275">  14:03:29</tspan></text>
  <text x="44" y="484" font-size="14.5" fill="#e8ecf4">Kenji, can your team share the audit checklist this week?</text>

  <!-- sidebar -->
  <line x1="748" y1="64" x2="748" y2="700" stroke="#232a3b"/>
  <text x="772" y="100" font-size="12" fill="#5a6275" letter-spacing="1.5">AUDIO</text>
  <text x="772" y="128" font-size="12" fill="#8b94a7" font-family="Menlo, monospace">Participants</text>
  <rect x="876" y="118" width="290" height="6" rx="3" fill="#161b28"/>
  <rect x="876" y="118" width="196" height="6" rx="3" fill="url(#lvl)"/>
  <text x="772" y="154" font-size="12" fill="#8b94a7" font-family="Menlo, monospace">You (mic)</text>
  <rect x="876" y="144" width="290" height="6" rx="3" fill="#161b28"/>
  <rect x="876" y="144" width="58" height="6" rx="3" fill="url(#lvl)"/>

  <text x="772" y="200" font-size="12" fill="#5a6275" letter-spacing="1.5">DELIVERABLES</text>
  <rect x="772" y="214" width="394" height="368" rx="12" fill="#11151f" stroke="#232a3b"/>
  <text x="792" y="248" font-size="16" font-weight="700" fill="#e8ecf4"># Meeting Minutes — 2026-07-06</text>
  <text x="792" y="280" font-size="12.5" font-weight="700" fill="#6fe3b4" letter-spacing="1">SUMMARY</text>
  <text x="792" y="302" font-size="13" fill="#8b94a7">Pilot rollout agreed for August pending the</text>
  <text x="792" y="320" font-size="13" fill="#8b94a7">security review; pricing to be confirmed.</text>
  <text x="792" y="352" font-size="12.5" font-weight="700" fill="#6fe3b4" letter-spacing="1">ACTION ITEMS</text>
  <rect x="792" y="366" width="354" height="26" fill="#161b28" stroke="#232a3b"/>
  <text y="384" font-size="12" fill="#e8ecf4" font-weight="600"><tspan x="804">#</tspan><tspan x="830">Action</tspan><tspan x="1010">Owner</tspan><tspan x="1096">Due</tspan></text>
  <rect x="792" y="392" width="354" height="26" fill="none" stroke="#232a3b"/>
  <text y="410" font-size="12" fill="#8b94a7"><tspan x="804">1</tspan><tspan x="830">Send pricing summary</tspan><tspan x="1010">You</tspan><tspan x="1096">Fri</tspan></text>
  <rect x="792" y="418" width="354" height="26" fill="none" stroke="#232a3b"/>
  <text y="436" font-size="12" fill="#8b94a7"><tspan x="804">2</tspan><tspan x="830">Share audit checklist</tspan><tspan x="1010">Kenji W.</tspan><tspan x="1096">TBD</tspan></text>
  <text x="792" y="478" font-size="12.5" font-weight="700" fill="#6fe3b4" letter-spacing="1">DECISIONS</text>
  <text x="792" y="500" font-size="13" fill="#8b94a7">• August pilot confirmed with Alice's team</text>
  <text x="792" y="540" font-size="12" fill="#5a6275" font-style="italic">Saved to ~/Documents/Susurro/2026-07-06_1402/</text>

  <!-- sidebar buttons -->
  <rect x="772" y="600" width="92" height="36" rx="9" fill="#1b2742" stroke="#2f4377"/>
  <text x="818" y="623" font-size="13" fill="#e8ecf4" text-anchor="middle">⚡ Recap</text>
  <rect x="872" y="600" width="98" height="36" rx="9" fill="#1b2742" stroke="#2f4377"/>
  <text x="921" y="623" font-size="13" fill="#e8ecf4" text-anchor="middle">✦ Minutes</text>
  <rect x="978" y="600" width="88" height="36" rx="9" fill="#1b2742" stroke="#2f4377"/>
  <text x="1022" y="623" font-size="13" fill="#e8ecf4" text-anchor="middle">✉ Email</text>
  <rect x="1074" y="600" width="92" height="36" rx="9" fill="#161b28" stroke="#232a3b"/>
  <text x="1120" y="623" font-size="13" fill="#e8ecf4" text-anchor="middle">Copy</text>

  <!-- callouts -->
  <circle cx="1082" cy="12" r="0" fill="none"/>
  <circle cx="1040" cy="18" r="12" fill="#6fe3b4"/>
  <text x="1040" y="23" font-size="13" font-weight="700" fill="#0b0e14" text-anchor="middle">1</text>
  <circle cx="590" cy="130" r="12" fill="#6fe3b4"/>
  <text x="590" y="135" font-size="13" font-weight="700" fill="#0b0e14" text-anchor="middle">2</text>
  <circle cx="772" cy="660" r="0" fill="none"/>
  <circle cx="748" cy="618" r="12" fill="#6fe3b4"/>
  <text x="748" y="623" font-size="13" font-weight="700" fill="#0b0e14" text-anchor="middle">3</text>

  <!-- caption strip -->
  <text x="26" y="738" font-size="14" fill="#8b94a7">
    <tspan fill="#6fe3b4" font-weight="700">1</tspan> press Start before (or during) the meeting
    <tspan dx="18" fill="#6fe3b4" font-weight="700">2</tspan> live captions — translated, original below, speaker names via 👤
    <tspan dx="18" fill="#6fe3b4" font-weight="700">3</tspan> one-click deliverables
  </text>
</svg>
